/* XPM */
static char * zoom_out_xpm[] = {
"16 16 15 1",
" 	c None",
".	c #000000",
"+	c #7FFFFF",
"@	c #007F7F",
"#	c #7FFEFE",
"$	c #7FFCFC",
"%	c #81FDFD",
"&	c #00FFFF",
"*	c #071AE4",
"=	c #000084",
"-	c #0000FF",
";	c #0017EF",
">	c #001AF3",
",	c #000DE9",
"'	c #000017",
"   .....        ",
"  .++++@.       ",
" .#+++++@.      ",
".++++++++@.     ",
".++....++@.     ",
".++++++++@.     ",
".$+++++++@.     ",
".@%++++++@.     ",
" .@+++++@..     ",
"  .......&*.    ",
"        =-&*.   ",
"         =-&;.  ",
"          =-&>. ",
"           =-&,.",
"            =-&.",
"             ..'"};
